<?xml version="1.0" standalone="no"?>
<!DOCTYPE svg PUBLIC "-//W3C//DTD SVG 20010904//EN"
 "http://www.w3.org/TR/2001/REC-SVG-20010904/DTD/svg10.dtd">
<svg version="1.0" xmlns="http://www.w3.org/2000/svg"
 width="16.000000pt" height="16.000000pt" viewBox="0 0 16.000000 16.000000"
 preserveAspectRatio="xMidYMid meet">
<metadata>
Created by potrace 1.11, written by Peter Selinger 2001-2013
</metadata>
<g transform="translate(0.000000,16.000000) scale(0.006400,-0.006400)"
fill="#000000" stroke="none">
<path d="M1166 2369 c-47 -5 -97 -17 -125 -31 -63 -32 -81 -70 -81 -175 l0
-83 163 -2 c154 -3 162 -4 162 -23 0 -19 -8 -20 -261 -25 l-261 -5 -40 -27
c-58 -38 -82 -83 -100 -190 -34 -197 28 -388 136 -418 20 -5 64 -10 99 -10
l62 0 0 102 c0 90 3 106 25 144 16 27 44 54 73 71 47 28 49 28 267 33 210 5
221 6 253 28 64 46 72 78 72 288 0 174 -1 189 -22 226 -34 60 -87 86 -199 98
-105 11 -112 11 -223 -1z m-24 -106 c22 -20 24 -66 2 -87 -35 -36 -104 -7
-104 42 0 54 62 81 102 45z"/>
<path d="M1248 803 c-17 -4 -18 -25 -18 -254 l0 -249 25 0 25 0 0 125 c0 120
1 125 24 140 36 24 88 29 111 12 18 -14 20 -29 23 -146 l4 -131 24 0 24 0 0
131 c0 74 -5 139 -11 151 -17 31 -67 48 -117 38 -24 -4 -49 -13 -55 -19 -23
-23 -27 -8 -27 99 0 61 -3 109 -7 109 -5 -1 -16 -3 -25 -6z"/>
<path d="M2246 732 c7 -4 14 -18 17 -32 l4 -25 2 27 c0 14 7 29 14 31 6 3 -1
6 -18 6 -16 0 -25 -3 -19 -7z"/>
<path d="M2301 710 c0 -29 1 -32 10 -17 7 11 7 23 0 35 -9 14 -10 11 -10 -18z"/>
<path d="M2347 733 c-2 -5 -1 -19 4 -33 7 -23 7 -23 8 8 1 31 -3 40 -12 25z"/>
<path d="M1073 720 c-19 -8 -23 -17 -23 -55 0 -33 -4 -45 -15 -45 -8 0 -15 -7
-15 -15 0 -8 7 -15 15 -15 12 0 15 -18 15 -104 0 -56 5 -117 10 -133 12 -32
45 -53 85 -53 33 0 32 16 -2 32 l-28 13 -3 123 -3 122 31 0 c20 0 30 5 30 15
0 10 -10 15 -30 15 -30 0 -30 1 -30 55 0 58 -1 59 -37 45z"/>
<path d="M2325 690 c-3 -5 -1 -10 4 -10 6 0 11 5 11 10 0 6 -2 10 -4 10 -3 0
-8 -4 -11 -10z"/>
<path d="M407 616 c-69 -26 -67 -17 -67 -247 0 -196 1 -209 19 -219 38 -20 41
-13 41 81 0 83 2 90 18 83 9 -4 40 -9 67 -12 59 -4 98 20 121 74 30 72 12 186
-37 230 -25 23 -113 28 -162 10z m128 -47 c30 -29 34 -152 6 -196 -26 -41 -62
-51 -107 -30 l-34 17 0 110 0 109 33 10 c41 12 76 5 102 -20z"/>
<path d="M703 619 c-22 -8 -23 -13 -23 -123 0 -63 5 -126 11 -139 23 -51 104
-72 178 -46 18 6 34 9 37 6 10 -10 -10 -91 -27 -108 -10 -10 -39 -24 -64 -30
-26 -7 -44 -16 -42 -23 6 -16 67 -12 110 9 62 29 69 54 75 267 l5 188 -32 0
-31 0 0 -131 0 -130 -35 -15 c-47 -19 -68 -18 -99 7 -26 20 -26 22 -26 144 0
68 -3 126 -7 128 -5 3 -18 1 -30 -4z"/>
<path d="M1635 620 c-56 -23 -103 -116 -90 -177 21 -96 69 -143 146 -143 59 0
105 30 129 83 54 118 -12 248 -124 246 -23 0 -50 -4 -61 -9z m115 -50 c26 -26
33 -59 28 -132 -4 -51 -9 -65 -32 -85 -34 -29 -79 -30 -106 -1 -45 49 -50 160
-9 212 26 33 89 36 119 6z"/>
<path d="M1969 620 c-14 -4 -38 -15 -52 -25 l-27 -17 0 -139 0 -139 25 0 25 0
0 136 0 135 36 15 c21 9 48 13 65 9 51 -11 59 -36 59 -172 l0 -123 25 0 25 0
0 139 0 139 -31 26 c-24 20 -41 26 -77 25 -26 0 -59 -4 -73 -9z"/>
</g>
</svg>
